{
  "accessors": [
    {
      "bufferView": 2,
      "componentType": 5126,
      "count": 2537,
      "max": [
        1.8895514011383057,
        0.3352022171020508,
        1.33037531375885
      ],
      "min": [
        -4.096853256225586,
        -0.700892448425293,
        -1.1904548406600952
      ],
      "type": "VEC3"
    },
    {
      "bufferView": 2,
      "byteOffset": 30444,
      "componentType": 5126,
      "count": 2537,
      "max": [
        1.0,
        1.0,
        1.0
      ],
      "min": [
        -1.0,
        -0.9999974370002747,
        -1.0
      ],
      "type": "VEC3"
    },
    {
      "bufferView": 1,
      "componentType": 5126,
      "count": 2537,
      "max": [
        0.9565990567207336,
        0.9835033416748047
      ],
      "min": [
        -0.00022469872783403844,
        0.0016322880983352661
      ],
      "type": "VEC2"
    },
    {
      "bufferView": 0,
      "componentType": 5125,
      "count": 5400,
      "type": "SCALAR"
    },
    {
      "bufferView": 2,
      "byteOffset": 60888,
      "componentType": 5126,
      "count": 96,
      "max": [
        4.391908645629883,
        0.5528683662414551,
        1.1974836587905884
      ],
      "min": [
        -4.313468933105469,
        -0.5806679725646973,
        -1.3952354192733765
      ],
      "type": "VEC3"
    },
    {
      "bufferView": 2,
      "byteOffset": 62040,
      "componentType": 5126,
      "count": 96,
      "max": [
        1.0,
        0.0,
        1.0
      ],
      "min": [
        -1.0,
        -1.0,
        -1.0
      ],
      "type": "VEC3"
    },
    {
      "bufferView": 1,
      "byteOffset": 20296,
      "componentType": 5126,
      "count": 96,
      "max": [
        0.8526809215545654,
        0.8442105650901794
      ],
      "min": [
        0.291921466588974,
        0.0
      ],
      "type": "VEC2"
    },
    {
      "bufferView": 0,
      "byteOffset": 21600,
      "componentType": 5125,
      "count": 198,
      "type": "SCALAR"
    }
  ],
  "asset": {
    "extras": {
      "author": "kaigalinski (https://sketchfab.com/kaigalinski)",
      "license": "CC-BY-4.0 (http://creativecommons.org/licenses/by/4.0/)",
      "source": "https://sketchfab.com/3d-models/bookshelf-3a1109b74f4a485bbe4a54ebdf23957e",
      "title": "Bookshelf"
    },
    "generator": "Sketchfab-12.65.0",
    "version": "2.0"
  },
  "bufferViews": [
    {
      "buffer": 0,
      "byteLength": 22392,
      "name": "floatBufferViews",
      "target": 34963
    },
    {
      "buffer": 0,
      "byteLength": 21064,
      "byteOffset": 22392,
      "byteStride": 8,
      "name": "floatBufferViews",
      "target": 34962
    },
    {
      "buffer": 0,
      "byteLength": 63192,
      "byteOffset": 43456,
      "byteStride": 12,
      "name": "floatBufferViews",
      "target": 34962
    }
  ],
  "buffers": [
    {
      "byteLength": 106648,
      "uri": "scene.bin"
    }
  ],
  "images": [
    {
      "uri": "textures/Material.107_baseColor.png"
    },
    {
      "uri": "textures/Material.021_baseColor.png"
    }
  ],
  "materials": [
    {
      "doubleSided": true,
      "name": "Material.107",
      "pbrMetallicRoughness": {
        "baseColorTexture": {
          "index": 0
        },
        "metallicFactor": 0.0
      }
    },
    {
      "doubleSided": true,
      "name": "Material.021",
      "pbrMetallicRoughness": {
        "baseColorTexture": {
          "index": 1
        },
        "metallicFactor": 0.0,
        "roughnessFactor": 0.8211145618000169
      }
    }
  ],
  "meshes": [
    {
      "name": "Book_Material.107_0",
      "primitives": [
        {
          "attributes": {
            "NORMAL": 1,
            "POSITION": 0,
            "TEXCOORD_0": 2
          },
          "indices": 3,
          "material": 0,
          "mode": 4
        }
      ]
    },
    {
      "name": "Book_Material.021_0",
      "primitives": [
        {
          "attributes": {
            "NORMAL": 5,
            "POSITION": 4,
            "TEXCOORD_0": 6
          },
          "indices": 7,
          "material": 1,
          "mode": 4
        }
      ]
    }
  ],
  "nodes": [
    {
      "children": [
        1
      ],
      "matrix": [
        1.0,
        0.0,
        0.0,
        0.0,
        0.0,
        2.220446049250313e-16,
        -1.0,
        0.0,
        0.0,
        1.0,
        2.220446049250313e-16,
        0.0,
        0.0,
        0.0,
        0.0,
        1.0
      ],
      "name": "Sketchfab_model"
    },
    {
      "children": [
        2
      ],
      "matrix": [
        0.009999999776482582,
        0.0,
        0.0,
        0.0,
        0.0,
        0.0,
        0.009999999776482582,
        0.0,
        0.0,
        -0.009999999776482582,
        0.0,
        0.0,
        0.0,
        0.0,
        0.0,
        1.0
      ],
      "name": "5714daa9e39a4e5197d15fb8ff2197e1.fbx"
    },
    {
      "children": [
        3
      ],
      "name": "RootNode"
    },
    {
      "children": [
        4,
        5
      ],
      "matrix": [
        23.77338409423828,
        0.0,
        0.0,
        0.0,
        0.0,
        -3.8731758880762595e-06,
        -23.77338409423797,
        0.0,
        0.0,
        23.77338409423797,
        -3.8731758880762595e-06,
        0.0,
        0.5980710387229919,
        0.6415367126464844,
        0.9229183197021484,
        1.0
      ],
      "name": "Book"
    },
    {
      "mesh": 0,
      "name": "Book_Material.107_0"
    },
    {
      "mesh": 1,
      "name": "Book_Material.021_0"
    }
  ],
  "samplers": [
    {
      "magFilter": 9729,
      "minFilter": 9987,
      "wrapS": 10497,
      "wrapT": 10497
    }
  ],
  "scene": 0,
  "scenes": [
    {
      "name": "Sketchfab_Scene",
      "nodes": [
        0
      ]
    }
  ],
  "textures": [
    {
      "sampler": 0,
      "source": 0
    },
    {
      "sampler": 0,
      "source": 1
    }
  ]
}
