{
  "accessors": [
    {
      "bufferView": 2,
      "componentType": 5126,
      "count": 24,
      "max": [
        1.0,
        1.0,
        1.0
      ],
      "min": [
        -1.0,
        -1.0,
        -1.0
      ],
      "type": "VEC3"
    },
    {
      "bufferView": 2,
      "byteOffset": 288,
      "componentType": 5126,
      "count": 24,
      "max": [
        1.0,
        1.0,
        1.0
      ],
      "min": [
        -1.0,
        -1.0,
        -1.0
      ],
      "type": "VEC3"
    },
    {
      "bufferView": 1,
      "componentType": 5126,
      "count": 24,
      "max": [
        0.7499567270278931,
        0.9999133944511414
      ],
      "min": [
        8.658754813950509e-05,
        8.660554885864258e-05
      ],
      "type": "VEC2"
    },
    {
      "bufferView": 0,
      "componentType": 5125,
      "count": 36,
      "type": "SCALAR"
    },
    {
      "bufferView": 2,
      "byteOffset": 576,
      "componentType": 5126,
      "count": 65532,
      "max": [
        3.1283373832702637,
        1.4871978759765625,
        2.443039894104004
      ],
      "min": [
        -3.5175936222076416,
        -1.8410472869873047,
        -2.4248971939086914
      ],
      "type": "VEC3"
    },
    {
      "bufferView": 2,
      "byteOffset": 786960,
      "componentType": 5126,
      "count": 65532,
      "max": [
        1.0,
        1.0,
        1.0
      ],
      "min": [
        -1.0,
        -1.0,
        -1.0
      ],
      "type": "VEC3"
    },
    {
      "bufferView": 1,
      "byteOffset": 192,
      "componentType": 5126,
      "count": 65532,
      "max": [
        0.9997419714927673,
        0.9995120167732239
      ],
      "min": [
        0.0002880000101868063,
        0.005374014377593994
      ],
      "type": "VEC2"
    },
    {
      "bufferView": 0,
      "byteOffset": 144,
      "componentType": 5125,
      "count": 297126,
      "type": "SCALAR"
    },
    {
      "bufferView": 2,
      "byteOffset": 1573344,
      "componentType": 5126,
      "count": 65532,
      "max": [
        3.1306073665618896,
        1.4832534790039063,
        3.0786938667297363
      ],
      "min": [
        -3.289240598678589,
        -1.7559852600097656,
        -2.422877311706543
      ],
      "type": "VEC3"
    },
    {
      "bufferView": 2,
      "byteOffset": 2359728,
      "componentType": 5126,
      "count": 65532,
      "max": [
        0.9991467595100403,
        0.999915599822998,
        0.9749495387077332
      ],
      "min": [
        -0.9962545037269592,
        -0.9996809363365173,
        -0.9995432496070862
      ],
      "type": "VEC3"
    },
    {
      "bufferView": 1,
      "byteOffset": 524448,
      "componentType": 5126,
      "count": 65532,
      "max": [
        0.9997090101242065,
        0.9995920062065125
      ],
      "min": [
        0.0002859999949578196,
        0.0002949833869934082
      ],
      "type": "VEC2"
    },
    {
      "bufferView": 0,
      "byteOffset": 1188648,
      "componentType": 5125,
      "count": 274467,
      "type": "SCALAR"
    },
    {
      "bufferView": 2,
      "byteOffset": 3146112,
      "componentType": 5126,
      "count": 65532,
      "max": [
        3.1270275115966797,
        1.4852447509765625,
        2.9164316654205322
      ],
      "min": [
        -3.413832426071167,
        -1.9472131729125977,
        -2.4416332244873047
      ],
      "type": "VEC3"
    },
    {
      "bufferView": 2,
      "byteOffset": 3932496,
      "componentType": 5126,
      "count": 65532,
      "max": [
        0.9991344213485718,
        0.9999307990074158,
        0.999916672706604
      ],
      "min": [
        -0.987293541431427,
        -0.9999027848243713,
        -0.9999405145645142
      ],
      "type": "VEC3"
    },
    {
      "bufferView": 1,
      "byteOffset": 1048704,
      "componentType": 5126,
      "count": 65532,
      "max": [
        0.9993399977684021,
        0.9995560050010681
      ],
      "min": [
        0.00031599999056197703,
        0.00026297569274902344
      ],
      "type": "VEC2"
    },
    {
      "bufferView": 0,
      "byteOffset": 2286516,
      "componentType": 5125,
      "count": 251547,
      "type": "SCALAR"
    },
    {
      "bufferView": 2,
      "byteOffset": 4718880,
      "componentType": 5126,
      "count": 65532,
      "max": [
        3.1315433979034424,
        1.4631328582763672,
        3.0605108737945557
      ],
      "min": [
        -3.4187064170837402,
        -1.946335792541504,
        -2.425605297088623
      ],
      "type": "VEC3"
    },
    {
      "bufferView": 2,
      "byteOffset": 5505264,
      "componentType": 5126,
      "count": 65532,
      "max": [
        0.9985789060592651,
        0.9999433159828186,
        0.999916672706604
      ],
      "min": [
        -0.9926757216453552,
        -0.9999027848243713,
        -0.9996945261955261
      ],
      "type": "VEC3"
    },
    {
      "bufferView": 1,
      "byteOffset": 1572960,
      "componentType": 5126,
      "count": 65532,
      "max": [
        0.9995920062065125,
        0.9995599985122681
      ],
      "min": [
        0.00034699999378062785,
        0.0002599954605102539
      ],
      "type": "VEC2"
    },
    {
      "bufferView": 0,
      "byteOffset": 3292704,
      "componentType": 5125,
      "count": 226320,
      "type": "SCALAR"
    },
    {
      "bufferView": 2,
      "byteOffset": 6291648,
      "componentType": 5126,
      "count": 65532,
      "max": [
        3.1271045207977295,
        1.4871978759765625,
        3.0799946784973145
      ],
      "min": [
        -3.4179835319519043,
        -1.9289922714233398,
        -2.431788206100464
      ],
      "type": "VEC3"
    },
    {
      "bufferView": 2,
      "byteOffset": 7078032,
      "componentType": 5126,
      "count": 65532,
      "max": [
        0.9985263347625732,
        0.9998123049736023,
        0.9997919797897339
      ],
      "min": [
        -0.9995567798614502,
        -0.9999998807907104,
        -0.9996945261955261
      ],
      "type": "VEC3"
    },
    {
      "bufferView": 1,
      "byteOffset": 2097216,
      "componentType": 5126,
      "count": 65532,
      "max": [
        0.999692976474762,
        0.9996110200881958
      ],
      "min": [
        0.0002969999914057553,
        0.0002599954605102539
      ],
      "type": "VEC2"
    },
    {
      "bufferView": 0,
      "byteOffset": 4197984,
      "componentType": 5125,
      "count": 182730,
      "type": "SCALAR"
    },
    {
      "bufferView": 2,
      "byteOffset": 7864416,
      "componentType": 5126,
      "count": 65534,
      "max": [
        3.1306073665618896,
        1.4871978759765625,
        3.0799946784973145
      ],
      "min": [
        -3.412306547164917,
        -1.9296016693115234,
        -2.437274217605591
      ],
      "type": "VEC3"
    },
    {
      "bufferView": 2,
      "byteOffset": 8650824,
      "componentType": 5126,
      "count": 65534,
      "max": [
        1.0,
        0.9998093247413635,
        1.0
      ],
      "min": [
        -0.9967494010925293,
        -0.9999998807907104,
        -0.9998076558113098
      ],
      "type": "VEC3"
    },
    {
      "bufferView": 1,
      "byteOffset": 2621472,
      "componentType": 5126,
      "count": 65534,
      "max": [
        0.9997410178184509,
        0.9995819926261902
      ],
      "min": [
        0.00028899998869746923,
        0.00025898218154907227
      ],
      "type": "VEC2"
    },
    {
      "bufferView": 0,
      "byteOffset": 4928904,
      "componentType": 5125,
      "count": 131988,
      "type": "SCALAR"
    },
    {
      "bufferView": 2,
      "byteOffset": 9437232,
      "componentType": 5126,
      "count": 35698,
      "max": [
        3.1306073665618896,
        1.4871978759765625,
        3.0799946784973145
      ],
      "min": [
        -3.5175936222076416,
        -1.9472131729125977,
        -2.4416332244873047
      ],
      "type": "VEC3"
    },
    {
      "bufferView": 2,
      "byteOffset": 9865608,
      "componentType": 5126,
      "count": 35698,
      "max": [
        1.0,
        1.0,
        1.0
      ],
      "min": [
        -1.0,
        -1.0,
        -1.0
      ],
      "type": "VEC3"
    },
    {
      "bufferView": 1,
      "byteOffset": 3145744,
      "componentType": 5126,
      "count": 35698,
      "max": [
        0.9997419714927673,
        0.9996070265769958
      ],
      "min": [
        0.0002589999930933118,
        0.00026297569274902344
      ],
      "type": "VEC2"
    },
    {
      "bufferView": 0,
      "byteOffset": 5456856,
      "componentType": 5125,
      "count": 50115,
      "type": "SCALAR"
    }
  ],
  "asset": {
    "extras": {
      "author": "ffish.asia / floraZia.com (https://sketchfab.com/ffishAsia-and-floraZia)",
      "license": "CC-BY-4.0 (http://creativecommons.org/licenses/by/4.0/)",
      "source": "https://sketchfab.com/3d-models/pencil-fish-pungtungia-herzi-7992078d1d964ca19bc8ed3baa8ad208",
      "title": "ムギツク Pencil fish, Pungtungia herzi"
    },
    "generator": "Sketchfab-14.35.0",
    "version": "2.0"
  },
  "bufferViews": [
    {
      "buffer": 0,
      "byteLength": 5657316,
      "name": "floatBufferViews",
      "target": 34963
    },
    {
      "buffer": 0,
      "byteLength": 3431328,
      "byteOffset": 5657316,
      "byteStride": 8,
      "name": "floatBufferViews",
      "target": 34962
    },
    {
      "buffer": 0,
      "byteLength": 10293984,
      "byteOffset": 9088644,
      "byteStride": 12,
      "name": "floatBufferViews",
      "target": 34962
    }
  ],
  "buffers": [
    {
      "byteLength": 19382628,
      "uri": "scene.bin"
    }
  ],
  "extensionsUsed": [
    "KHR_materials_unlit"
  ],
  "images": [
    {
      "uri": "textures/Material.001_baseColor.jpeg"
    },
    {
      "uri": "textures/QS1312-W04-1all-1_baseColor.jpeg"
    }
  ],
  "materials": [
    {
      "doubleSided": true,
      "extensions": {
        "KHR_materials_unlit": {}
      },
      "name": "Material.001",
      "pbrMetallicRoughness": {
        "baseColorTexture": {
          "index": 0
        },
        "metallicFactor": 0.0
      }
    },
    {
      "doubleSided": true,
      "extensions": {
        "KHR_materials_unlit": {}
      },
      "name": "QS1312-W04-1all-1",
      "pbrMetallicRoughness": {
        "baseColorTexture": {
          "index": 1
        },
        "metallicFactor": 0.0
      }
    }
  ],
  "meshes": [
    {
      "name": "Object_0",
      "primitives": [
        {
          "attributes": {
            "NORMAL": 1,
            "POSITION": 0,
            "TEXCOORD_0": 2
          },
          "indices": 3,
          "material": 0,
          "mode": 4
        }
      ]
    },
    {
      "name": "Object_1",
      "primitives": [
        {
          "attributes": {
            "NORMAL": 5,
            "POSITION": 4,
            "TEXCOORD_0": 6
          },
          "indices": 7,
          "material": 1,
          "mode": 4
        }
      ]
    },
    {
      "name": "Object_2",
      "primitives": [
        {
          "attributes": {
            "NORMAL": 9,
            "POSITION": 8,
            "TEXCOORD_0": 10
          },
          "indices": 11,
          "material": 1,
          "mode": 4
        }
      ]
    },
    {
      "name": "Object_3",
      "primitives": [
        {
          "attributes": {
            "NORMAL": 13,
            "POSITION": 12,
            "TEXCOORD_0": 14
          },
          "indices": 15,
          "material": 1,
          "mode": 4
        }
      ]
    },
    {
      "name": "Object_4",
      "primitives": [
        {
          "attributes": {
            "NORMAL": 17,
            "POSITION": 16,
            "TEXCOORD_0": 18
          },
          "indices": 19,
          "material": 1,
          "mode": 4
        }
      ]
    },
    {
      "name": "Object_5",
      "primitives": [
        {
          "attributes": {
            "NORMAL": 21,
            "POSITION": 20,
            "TEXCOORD_0": 22
          },
          "indices": 23,
          "material": 1,
          "mode": 4
        }
      ]
    },
    {
      "name": "Object_6",
      "primitives": [
        {
          "attributes": {
            "NORMAL": 25,
            "POSITION": 24,
            "TEXCOORD_0": 26
          },
          "indices": 27,
          "material": 1,
          "mode": 4
        }
      ]
    },
    {
      "name": "Object_7",
      "primitives": [
        {
          "attributes": {
            "NORMAL": 29,
            "POSITION": 28,
            "TEXCOORD_0": 30
          },
          "indices": 31,
          "material": 1,
          "mode": 4
        }
      ]
    }
  ],
  "nodes": [
    {
      "children": [
        1
      ],
      "matrix": [
        1.0,
        0.0,
        0.0,
        0.0,
        0.0,
        2.220446049250313e-16,
        -1.0,
        0.0,
        0.0,
        1.0,
        2.220446049250313e-16,
        0.0,
        0.0,
        0.0,
        0.0,
        1.0
      ],
      "name": "Sketchfab_model"
    },
    {
      "children": [
        2
      ],
      "name": "root"
    },
    {
      "children": [
        3,
        5
      ],
      "matrix": [
        1.0,
        0.0,
        0.0,
        0.0,
        0.0,
        2.220446049250313e-16,
        1.0,
        0.0,
        0.0,
        -1.0,
        2.220446049250313e-16,
        0.0,
        0.0,
        0.0,
        0.0,
        1.0
      ],
      "name": "GLTF_SceneRootNode"
    },
    {
      "children": [
        4
      ],
      "matrix": [
        -0.0006991530101901539,
        -0.3774505171327376,
        0.0013462851069925025,
        0.0,
        0.0017425679735271755,
        -0.0013495008998740453,
        -0.37744716051979715,
        0.0,
        0.37744892544836767,
        -0.0006929258298048255,
        0.0017450535652523307,
        0.0,
        6.2652997970581055,
        0.006071597337722778,
        -0.00019154486653860658,
        1.0
      ],
      "name": "Cube_2"
    },
    {
      "mesh": 0,
      "name": "Object_4"
    },
    {
      "children": [
        6,
        7,
        8,
        9,
        10,
        11,
        12
      ],
      "matrix": [
        -0.7587838026613862,
        0.1658037222419646,
        -0.6298859154715531,
        0.0,
        -0.31734770831138986,
        0.7504025645282724,
        0.5798158528178589,
        0.0,
        0.5688036329421923,
        0.6398477294170085,
        -0.5167758801566331,
        0.0,
        0.0,
        0.0,
        0.0,
        1.0
      ],
      "name": "QS1312-W04-1all-1_5"
    },
    {
      "mesh": 1,
      "name": "Object_6"
    },
    {
      "mesh": 2,
      "name": "Object_7"
    },
    {
      "mesh": 3,
      "name": "Object_8"
    },
    {
      "mesh": 4,
      "name": "Object_9"
    },
    {
      "mesh": 5,
      "name": "Object_10"
    },
    {
      "mesh": 6,
      "name": "Object_11"
    },
    {
      "mesh": 7,
      "name": "Object_12"
    }
  ],
  "samplers": [
    {
      "magFilter": 9729,
      "minFilter": 9987,
      "wrapS": 10497,
      "wrapT": 10497
    }
  ],
  "scene": 0,
  "scenes": [
    {
      "name": "Sketchfab_Scene",
      "nodes": [
        0
      ]
    }
  ],
  "textures": [
    {
      "sampler": 0,
      "source": 0
    },
    {
      "sampler": 0,
      "source": 1
    }
  ]
}
