{
  "accessors": [
    {
      "bufferView": 2,
      "componentType": 5126,
      "count": 5754,
      "max": [
        120.0,
        300.0,
        120.0
      ],
      "min": [
        -120.0,
        225.0,
        -120.0
      ],
      "type": "VEC3"
    },
    {
      "bufferView": 2,
      "byteOffset": 69048,
      "componentType": 5126,
      "count": 5754,
      "max": [
        1.0,
        1.0,
        1.0
      ],
      "min": [
        -1.0,
        -1.0,
        -1.0
      ],
      "type": "VEC3"
    },
    {
      "bufferView": 1,
      "componentType": 5126,
      "count": 5754,
      "max": [
        120.0,
        459.6304016113281
      ],
      "min": [
        -152.2222137451172,
        -120.0
      ],
      "type": "VEC2"
    },
    {
      "bufferView": 0,
      "componentType": 5125,
      "count": 28458,
      "type": "SCALAR"
    },
    {
      "bufferView": 2,
      "byteOffset": 138096,
      "componentType": 5126,
      "count": 264,
      "max": [
        113.5271224975586,
        260.3547058105469,
        113.5271224975586
      ],
      "min": [
        -113.5271224975586,
        236.20654296875,
        -113.5271224975586
      ],
      "type": "VEC3"
    },
    {
      "bufferView": 2,
      "byteOffset": 141264,
      "componentType": 5126,
      "count": 264,
      "max": [
        0.965925931930542,
        0.2588190734386444,
        0.965925931930542
      ],
      "min": [
        -0.965925931930542,
        0.258819043636322,
        -0.965925931930542
      ],
      "type": "VEC3"
    },
    {
      "bufferView": 1,
      "byteOffset": 46032,
      "componentType": 5126,
      "count": 264,
      "max": [
        12.5,
        12.5
      ],
      "min": [
        -12.5,
        -12.5
      ],
      "type": "VEC2"
    },
    {
      "bufferView": 0,
      "byteOffset": 113832,
      "componentType": 5125,
      "count": 768,
      "type": "SCALAR"
    },
    {
      "bufferView": 2,
      "byteOffset": 144432,
      "componentType": 5126,
      "count": 11190,
      "max": [
        299.9990539550781,
        225.0,
        299.9990539550781
      ],
      "min": [
        -299.9990539550781,
        125.0,
        -299.9990539550781
      ],
      "type": "VEC3"
    },
    {
      "bufferView": 2,
      "byteOffset": 278712,
      "componentType": 5126,
      "count": 11190,
      "max": [
        1.0,
        1.0,
        1.0
      ],
      "min": [
        -1.0,
        -1.0,
        -1.0
      ],
      "type": "VEC3"
    },
    {
      "bufferView": 1,
      "byteOffset": 48144,
      "componentType": 5126,
      "count": 11190,
      "max": [
        313.93060302734375,
        1550.3272705078125
      ],
      "min": [
        -184.89793395996094,
        -953.8611450195313
      ],
      "type": "VEC2"
    },
    {
      "bufferView": 0,
      "byteOffset": 116904,
      "componentType": 5125,
      "count": 41316,
      "type": "SCALAR"
    },
    {
      "bufferView": 2,
      "byteOffset": 412992,
      "componentType": 5126,
      "count": 1332,
      "max": [
        299.19317626953125,
        173.7498321533203,
        299.19317626953125
      ],
      "min": [
        -299.19317626953125,
        156.243896484375,
        -299.19317626953125
      ],
      "type": "VEC3"
    },
    {
      "bufferView": 2,
      "byteOffset": 428976,
      "componentType": 5126,
      "count": 1332,
      "max": [
        0.9988992214202881,
        0.004936994519084692,
        0.9988992214202881
      ],
      "min": [
        -0.9988992214202881,
        0.004936994053423405,
        -0.9988992214202881
      ],
      "type": "VEC3"
    },
    {
      "bufferView": 1,
      "byteOffset": 137664,
      "componentType": 5126,
      "count": 1332,
      "max": [
        2.5,
        8.75
      ],
      "min": [
        -2.5,
        -8.75
      ],
      "type": "VEC2"
    },
    {
      "bufferView": 0,
      "byteOffset": 282168,
      "componentType": 5125,
      "count": 3888,
      "type": "SCALAR"
    },
    {
      "bufferView": 2,
      "byteOffset": 444960,
      "componentType": 5126,
      "count": 2974,
      "max": [
        177.13937377929688,
        150.0,
        177.13937377929688
      ],
      "min": [
        -177.13937377929688,
        111.6977767944336,
        -177.13937377929688
      ],
      "type": "VEC3"
    },
    {
      "bufferView": 2,
      "byteOffset": 480648,
      "componentType": 5126,
      "count": 2974,
      "max": [
        1.0,
        1.0,
        1.0
      ],
      "min": [
        -1.0,
        -1.0,
        -1.0
      ],
      "type": "VEC3"
    },
    {
      "bufferView": 1,
      "byteOffset": 148320,
      "componentType": 5126,
      "count": 2974,
      "max": [
        177.13937377929688,
        455.5823669433594
      ],
      "min": [
        -177.13937377929688,
        -455.5823669433594
      ],
      "type": "VEC2"
    },
    {
      "bufferView": 0,
      "byteOffset": 297720,
      "componentType": 5125,
      "count": 10500,
      "type": "SCALAR"
    },
    {
      "bufferView": 2,
      "byteOffset": 516336,
      "componentType": 5126,
      "count": 248,
      "max": [
        114.0,
        115.0,
        114.0
      ],
      "min": [
        -114.0,
        112.31779479980469,
        -114.0
      ],
      "type": "VEC3"
    },
    {
      "bufferView": 2,
      "byteOffset": 519312,
      "componentType": 5126,
      "count": 248,
      "max": [
        0.0365556962788105,
        -0.9993317127227783,
        0.0365556962788105
      ],
      "min": [
        -0.0365556962788105,
        -0.9999986290931702,
        -0.0365556962788105
      ],
      "type": "VEC3"
    },
    {
      "bufferView": 1,
      "byteOffset": 172112,
      "componentType": 5126,
      "count": 248,
      "max": [
        114.03730773925781,
        322.4673767089844
      ],
      "min": [
        0.0,
        0.0
      ],
      "type": "VEC2"
    },
    {
      "bufferView": 0,
      "byteOffset": 339720,
      "componentType": 5125,
      "count": 948,
      "type": "SCALAR"
    },
    {
      "bufferView": 2,
      "byteOffset": 522288,
      "componentType": 5126,
      "count": 579,
      "max": [
        124.0,
        120.0,
        124.0
      ],
      "min": [
        -124.0,
        100.0,
        -124.0
      ],
      "type": "VEC3"
    },
    {
      "bufferView": 2,
      "byteOffset": 529236,
      "componentType": 5126,
      "count": 579,
      "max": [
        1.0,
        1.0,
        1.0
      ],
      "min": [
        -1.0,
        -1.0,
        -1.0
      ],
      "type": "VEC3"
    },
    {
      "bufferView": 1,
      "byteOffset": 174096,
      "componentType": 5126,
      "count": 579,
      "max": [
        124.0,
        350.73150634765625
      ],
      "min": [
        -124.0,
        -350.73150634765625
      ],
      "type": "VEC2"
    },
    {
      "bufferView": 0,
      "byteOffset": 343512,
      "componentType": 5125,
      "count": 2088,
      "type": "SCALAR"
    }
  ],
  "asset": {
    "extras": {
      "author": "rowan11 (https://sketchfab.com/rowan11)",
      "license": "CC-BY-4.0 (http://creativecommons.org/licenses/by/4.0/)",
      "source": "https://sketchfab.com/3d-models/ufo-2c3b4613db884585938318e1d10361d3",
      "title": "UFO"
    },
    "generator": "Sketchfab-12.67.0",
    "version": "2.0"
  },
  "bufferViews": [
    {
      "buffer": 0,
      "byteLength": 351864,
      "name": "floatBufferViews",
      "target": 34963
    },
    {
      "buffer": 0,
      "byteLength": 178728,
      "byteOffset": 351864,
      "byteStride": 8,
      "name": "floatBufferViews",
      "target": 34962
    },
    {
      "buffer": 0,
      "byteLength": 536184,
      "byteOffset": 530592,
      "byteStride": 12,
      "name": "floatBufferViews",
      "target": 34962
    }
  ],
  "buffers": [
    {
      "byteLength": 1066776,
      "uri": "scene.bin"
    }
  ],
  "extensionsUsed": [
    "KHR_materials_clearcoat"
  ],
  "materials": [
    {
      "doubleSided": true,
      "extensions": {
        "KHR_materials_clearcoat": {
          "clearcoatFactor": 1.0,
          "clearcoatRoughnessFactor": 0.04
        }
      },
      "name": "Body1__0",
      "pbrMetallicRoughness": {
        "baseColorFactor": [
          0.49203814104980514,
          0.44943402595192516,
          0.44943402595192516,
          1.0
        ],
        "roughnessFactor": 0.6
      }
    },
    {
      "doubleSided": true,
      "name": "Base_Material_-_Opaque",
      "pbrMetallicRoughness": {
        "baseColorFactor": [
          0.12918817636889204,
          0.14435650948695394,
          0.15090114725019055,
          1.0
        ],
        "roughnessFactor": 0.9577051495
      }
    },
    {
      "doubleSided": true,
      "name": "LED_Green",
      "pbrMetallicRoughness": {
        "baseColorFactor": [
          0.06734595670439386,
          0.2169077888695285,
          0.5612388103215987,
          1.0
        ],
        "metallicFactor": 0.0,
        "roughnessFactor": 0.9577051495
      }
    },
    {
      "doubleSided": true,
      "name": "Steel_-_Rough_1",
      "pbrMetallicRoughness": {
        "baseColorFactor": [
          0.14107431122548625,
          0.14107431122548625,
          0.14107431122548625,
          1.0
        ],
        "metallicFactor": 0.6419588414634146,
        "roughnessFactor": 0.9577051495
      }
    }
  ],
  "meshes": [
    {
      "name": "Body1__0",
      "primitives": [
        {
          "attributes": {
            "NORMAL": 1,
            "POSITION": 0,
            "TEXCOORD_0": 2
          },
          "indices": 3,
          "material": 0,
          "mode": 4
        }
      ]
    },
    {
      "name": "Body1_Base Material - Opaque_0",
      "primitives": [
        {
          "attributes": {
            "NORMAL": 5,
            "POSITION": 4,
            "TEXCOORD_0": 6
          },
          "indices": 7,
          "material": 1,
          "mode": 4
        }
      ]
    },
    {
      "name": "Body2__0",
      "primitives": [
        {
          "attributes": {
            "NORMAL": 9,
            "POSITION": 8,
            "TEXCOORD_0": 10
          },
          "indices": 11,
          "material": 0,
          "mode": 4
        }
      ]
    },
    {
      "name": "Body2_LED (Green)_0",
      "primitives": [
        {
          "attributes": {
            "NORMAL": 13,
            "POSITION": 12,
            "TEXCOORD_0": 14
          },
          "indices": 15,
          "material": 2,
          "mode": 4
        }
      ]
    },
    {
      "name": "Body3_Steel - Rough (1)_0",
      "primitives": [
        {
          "attributes": {
            "NORMAL": 17,
            "POSITION": 16,
            "TEXCOORD_0": 18
          },
          "indices": 19,
          "material": 3,
          "mode": 4
        }
      ]
    },
    {
      "name": "Body4_LED (Green)_0",
      "primitives": [
        {
          "attributes": {
            "NORMAL": 21,
            "POSITION": 20,
            "TEXCOORD_0": 22
          },
          "indices": 23,
          "material": 2,
          "mode": 4
        }
      ]
    },
    {
      "name": "Body4__0",
      "primitives": [
        {
          "attributes": {
            "NORMAL": 25,
            "POSITION": 24,
            "TEXCOORD_0": 26
          },
          "indices": 27,
          "material": 0,
          "mode": 4
        }
      ]
    }
  ],
  "nodes": [
    {
      "children": [
        1
      ],
      "matrix": [
        0.0014522772980853915,
        0.0,
        0.0,
        0.0,
        0.0,
        3.224703388949627e-19,
        -0.0014522772980853915,
        0.0,
        0.0,
        0.0014522772980853915,
        3.224703388949627e-19,
        0.0,
        0.0,
        0.0,
        0.0,
        1.0
      ],
      "name": "Sketchfab_model"
    },
    {
      "children": [
        2
      ],
      "matrix": [
        1.0,
        0.0,
        0.0,
        0.0,
        0.0,
        0.0,
        1.0,
        0.0,
        0.0,
        -1.0,
        0.0,
        0.0,
        0.0,
        0.0,
        0.0,
        1.0
      ],
      "name": "cb19c4fe591b4d01af43b6c7ab09665f.fbx"
    },
    {
      "children": [
        3
      ],
      "name": "RootNode"
    },
    {
      "children": [
        4,
        7,
        10,
        12
      ],
      "name": "UFO v6"
    },
    {
      "children": [
        5,
        6
      ],
      "matrix": [
        10.0,
        0.0,
        0.0,
        0.0,
        0.0,
        10.0,
        0.0,
        0.0,
        0.0,
        0.0,
        10.0,
        0.0,
        0.0,
        0.0,
        0.0,
        1.0
      ],
      "name": "Body1"
    },
    {
      "mesh": 0,
      "name": "Body1__0"
    },
    {
      "mesh": 1,
      "name": "Body1_Base Material - Opaque_0"
    },
    {
      "children": [
        8,
        9
      ],
      "matrix": [
        10.0,
        0.0,
        0.0,
        0.0,
        0.0,
        10.0,
        0.0,
        0.0,
        0.0,
        0.0,
        10.0,
        0.0,
        0.0,
        0.0,
        0.0,
        1.0
      ],
      "name": "Body2"
    },
    {
      "mesh": 2,
      "name": "Body2__0"
    },
    {
      "mesh": 3,
      "name": "Body2_LED (Green)_0"
    },
    {
      "children": [
        11
      ],
      "matrix": [
        10.0,
        0.0,
        0.0,
        0.0,
        0.0,
        10.0,
        0.0,
        0.0,
        0.0,
        0.0,
        10.0,
        0.0,
        0.0,
        0.0,
        0.0,
        1.0
      ],
      "name": "Body3"
    },
    {
      "mesh": 4,
      "name": "Body3_Steel - Rough (1)_0"
    },
    {
      "children": [
        13,
        14
      ],
      "matrix": [
        10.0,
        0.0,
        0.0,
        0.0,
        0.0,
        10.0,
        0.0,
        0.0,
        0.0,
        0.0,
        10.0,
        0.0,
        0.0,
        0.0,
        0.0,
        1.0
      ],
      "name": "Body4"
    },
    {
      "mesh": 5,
      "name": "Body4_LED (Green)_0"
    },
    {
      "mesh": 6,
      "name": "Body4__0"
    }
  ],
  "scene": 0,
  "scenes": [
    {
      "name": "Sketchfab_Scene",
      "nodes": [
        0
      ]
    }
  ]
}
