{
  "accessors": [
    {
      "bufferView": 1,
      "componentType": 5126,
      "count": 65532,
      "max": [
        4.987674236297607,
        4.980133056640625,
        6.278153896331787
      ],
      "min": [
        -4.981776714324951,
        -4.9893269538879395,
        -2.108196973800659
      ],
      "type": "VEC3"
    },
    {
      "bufferView": 1,
      "byteOffset": 786384,
      "componentType": 5126,
      "count": 65532,
      "max": [
        0.9999870657920837,
        0.9999902844429016,
        1.0
      ],
      "min": [
        -0.9999961853027344,
        -0.9999902844429016,
        -1.0
      ],
      "type": "VEC3"
    },
    {
      "bufferView": 0,
      "componentType": 5125,
      "count": 296649,
      "type": "SCALAR"
    },
    {
      "bufferView": 1,
      "byteOffset": 1572768,
      "componentType": 5126,
      "count": 65532,
      "max": [
        4.937788486480713,
        4.911006450653076,
        6.277830123901367
      ],
      "min": [
        -4.917576789855957,
        -4.920191764831543,
        -2.257570505142212
      ],
      "type": "VEC3"
    },
    {
      "bufferView": 1,
      "byteOffset": 2359152,
      "componentType": 5126,
      "count": 65532,
      "max": [
        0.9999822974205017,
        0.9999822378158569,
        1.0
      ],
      "min": [
        -0.999999463558197,
        -0.9999574422836304,
        -1.0
      ],
      "type": "VEC3"
    },
    {
      "bufferView": 0,
      "byteOffset": 1186596,
      "componentType": 5125,
      "count": 254811,
      "type": "SCALAR"
    },
    {
      "bufferView": 1,
      "byteOffset": 3145536,
      "componentType": 5126,
      "count": 65532,
      "max": [
        4.9823689460754395,
        4.911006450653076,
        6.278153896331787
      ],
      "min": [
        -4.923100471496582,
        -4.983556270599365,
        -1.984329104423523
      ],
      "type": "VEC3"
    },
    {
      "bufferView": 1,
      "byteOffset": 3931920,
      "componentType": 5126,
      "count": 65532,
      "max": [
        0.9999980926513672,
        0.9999909400939941,
        1.0
      ],
      "min": [
        -0.9999717473983765,
        -0.9999867081642151,
        -1.0
      ],
      "type": "VEC3"
    },
    {
      "bufferView": 0,
      "byteOffset": 2205840,
      "componentType": 5125,
      "count": 167922,
      "type": "SCALAR"
    },
    {
      "bufferView": 1,
      "byteOffset": 4718304,
      "componentType": 5126,
      "count": 65532,
      "max": [
        4.928470134735107,
        4.9310688972473145,
        6.194730758666992
      ],
      "min": [
        -4.932713508605957,
        -4.969186305999756,
        -2.2574925422668457
      ],
      "type": "VEC3"
    },
    {
      "bufferView": 1,
      "byteOffset": 5504688,
      "componentType": 5126,
      "count": 65532,
      "max": [
        0.9999825358390808,
        0.9999951720237732,
        1.0
      ],
      "min": [
        -0.9999969005584717,
        -0.9999933242797852,
        -1.0
      ],
      "type": "VEC3"
    },
    {
      "bufferView": 0,
      "byteOffset": 2877528,
      "componentType": 5125,
      "count": 141732,
      "type": "SCALAR"
    },
    {
      "bufferView": 1,
      "byteOffset": 6291072,
      "componentType": 5126,
      "count": 65532,
      "max": [
        4.925655841827393,
        4.91811466217041,
        6.186434745788574
      ],
      "min": [
        -4.9197587966918945,
        -4.979031562805176,
        -2.115811824798584
      ],
      "type": "VEC3"
    },
    {
      "bufferView": 1,
      "byteOffset": 7077456,
      "componentType": 5126,
      "count": 65532,
      "max": [
        0.9999411106109619,
        0.9999409914016724,
        1.0
      ],
      "min": [
        -0.9999560713768005,
        -0.9999960660934448,
        -1.0
      ],
      "type": "VEC3"
    },
    {
      "bufferView": 0,
      "byteOffset": 3444456,
      "componentType": 5125,
      "count": 133020,
      "type": "SCALAR"
    },
    {
      "bufferView": 1,
      "byteOffset": 7863840,
      "componentType": 5126,
      "count": 65532,
      "max": [
        4.918159008026123,
        4.91811466217041,
        6.194730758666992
      ],
      "min": [
        -4.9197587966918945,
        -4.94722843170166,
        -2.257542371749878
      ],
      "type": "VEC3"
    },
    {
      "bufferView": 1,
      "byteOffset": 8650224,
      "componentType": 5126,
      "count": 65532,
      "max": [
        0.9999879598617554,
        0.9999553561210632,
        1.0
      ],
      "min": [
        -0.9999552369117737,
        -0.9999550580978394,
        -1.0
      ],
      "type": "VEC3"
    },
    {
      "bufferView": 0,
      "byteOffset": 3976536,
      "componentType": 5125,
      "count": 122001,
      "type": "SCALAR"
    },
    {
      "bufferView": 1,
      "byteOffset": 9436608,
      "componentType": 5126,
      "count": 65533,
      "max": [
        4.932016372680664,
        4.924474716186523,
        6.247935771942139
      ],
      "min": [
        -4.926118850708008,
        -4.984377861022949,
        -2.257488965988159
      ],
      "type": "VEC3"
    },
    {
      "bufferView": 1,
      "byteOffset": 10223004,
      "componentType": 5126,
      "count": 65533,
      "max": [
        0.9998449087142944,
        0.9999994039535522,
        1.0
      ],
      "min": [
        -0.9998441338539124,
        -0.999999463558197,
        -1.0
      ],
      "type": "VEC3"
    },
    {
      "bufferView": 0,
      "byteOffset": 4464540,
      "componentType": 5125,
      "count": 113463,
      "type": "SCALAR"
    },
    {
      "bufferView": 1,
      "byteOffset": 11009400,
      "componentType": 5126,
      "count": 65534,
      "max": [
        4.940518379211426,
        4.932977676391602,
        6.27762508392334
      ],
      "min": [
        -4.934621810913086,
        -4.951838493347168,
        -2.25750470161438
      ],
      "type": "VEC3"
    },
    {
      "bufferView": 1,
      "byteOffset": 11795808,
      "componentType": 5126,
      "count": 65534,
      "max": [
        0.9999998807907104,
        0.9999793171882629,
        1.0
      ],
      "min": [
        -0.999994695186615,
        -0.9999982714653015,
        -1.0
      ],
      "type": "VEC3"
    },
    {
      "bufferView": 0,
      "byteOffset": 4918392,
      "componentType": 5125,
      "count": 90744,
      "type": "SCALAR"
    },
    {
      "bufferView": 1,
      "byteOffset": 12582216,
      "componentType": 5126,
      "count": 65532,
      "max": [
        4.281991958618164,
        2.211193561553955,
        4.518563747406006
      ],
      "min": [
        -4.811311721801758,
        -4.81885290145874,
        -7.063232421875
      ],
      "type": "VEC3"
    },
    {
      "bufferView": 1,
      "byteOffset": 13368600,
      "componentType": 5126,
      "count": 65532,
      "max": [
        0.9999845027923584,
        0.999950647354126,
        1.0
      ],
      "min": [
        -0.9999445080757141,
        -0.9999843835830688,
        -0.9996765851974487
      ],
      "type": "VEC3"
    },
    {
      "bufferView": 0,
      "byteOffset": 5281368,
      "componentType": 5125,
      "count": 87471,
      "type": "SCALAR"
    },
    {
      "bufferView": 1,
      "byteOffset": 14154984,
      "componentType": 5126,
      "count": 65534,
      "max": [
        4.817208766937256,
        4.274450302124023,
        4.518563747406006
      ],
      "min": [
        -2.550048828125,
        -4.283636093139648,
        -0.06852801144123077
      ],
      "type": "VEC3"
    },
    {
      "bufferView": 1,
      "byteOffset": 14941392,
      "componentType": 5126,
      "count": 65534,
      "max": [
        0.9999206066131592,
        0.9999842643737793,
        0.9999489188194275
      ],
      "min": [
        -0.9998635649681091,
        -0.9999507665634155,
        -0.9996767044067383
      ],
      "type": "VEC3"
    },
    {
      "bufferView": 0,
      "byteOffset": 5631252,
      "componentType": 5125,
      "count": 87090,
      "type": "SCALAR"
    },
    {
      "bufferView": 1,
      "byteOffset": 15727800,
      "componentType": 5126,
      "count": 818,
      "max": [
        4.930873870849609,
        4.923333644866943,
        6.278153896331787
      ],
      "min": [
        -4.829383373260498,
        -4.980810642242432,
        -2.255328893661499
      ],
      "type": "VEC3"
    },
    {
      "bufferView": 1,
      "byteOffset": 15737616,
      "componentType": 5126,
      "count": 818,
      "max": [
        0.9998782277107239,
        0.9996785521507263,
        0.9999976754188538
      ],
      "min": [
        -0.9968137741088867,
        -0.999880313873291,
        -0.9988083243370056
      ],
      "type": "VEC3"
    },
    {
      "bufferView": 0,
      "byteOffset": 5979612,
      "componentType": 5125,
      "count": 1155,
      "type": "SCALAR"
    }
  ],
  "asset": {
    "extras": {
      "author": "MMKH (https://sketchfab.com/mmkh)",
      "license": "CC-BY-4.0 (http://creativecommons.org/licenses/by/4.0/)",
      "source": "https://sketchfab.com/3d-models/swing-ride-day-28-3dinktober2019-ride-129d5b6d34464f8c9b95c2b20d290dfe",
      "title": "Swing Ride - Day 28 #3DInktober2019-Ride"
    },
    "generator": "Sketchfab-12.68.0",
    "version": "2.0"
  },
  "bufferViews": [
    {
      "buffer": 0,
      "byteLength": 5984232,
      "name": "floatBufferViews",
      "target": 34963
    },
    {
      "buffer": 0,
      "byteLength": 15747432,
      "byteOffset": 5984232,
      "byteStride": 12,
      "name": "floatBufferViews",
      "target": 34962
    }
  ],
  "buffers": [
    {
      "byteLength": 21731664,
      "uri": "scene.bin"
    }
  ],
  "materials": [
    {
      "doubleSided": true,
      "name": "material_0",
      "pbrMetallicRoughness": {
        "metallicFactor": 0.0,
        "roughnessFactor": 0.6
      }
    }
  ],
  "meshes": [
    {
      "name": "Object_0",
      "primitives": [
        {
          "attributes": {
            "NORMAL": 1,
            "POSITION": 0
          },
          "indices": 2,
          "material": 0,
          "mode": 4
        }
      ]
    },
    {
      "name": "Object_1",
      "primitives": [
        {
          "attributes": {
            "NORMAL": 4,
            "POSITION": 3
          },
          "indices": 5,
          "material": 0,
          "mode": 4
        }
      ]
    },
    {
      "name": "Object_2",
      "primitives": [
        {
          "attributes": {
            "NORMAL": 7,
            "POSITION": 6
          },
          "indices": 8,
          "material": 0,
          "mode": 4
        }
      ]
    },
    {
      "name": "Object_3",
      "primitives": [
        {
          "attributes": {
            "NORMAL": 10,
            "POSITION": 9
          },
          "indices": 11,
          "material": 0,
          "mode": 4
        }
      ]
    },
    {
      "name": "Object_4",
      "primitives": [
        {
          "attributes": {
            "NORMAL": 13,
            "POSITION": 12
          },
          "indices": 14,
          "material": 0,
          "mode": 4
        }
      ]
    },
    {
      "name": "Object_5",
      "primitives": [
        {
          "attributes": {
            "NORMAL": 16,
            "POSITION": 15
          },
          "indices": 17,
          "material": 0,
          "mode": 4
        }
      ]
    },
    {
      "name": "Object_6",
      "primitives": [
        {
          "attributes": {
            "NORMAL": 19,
            "POSITION": 18
          },
          "indices": 20,
          "material": 0,
          "mode": 4
        }
      ]
    },
    {
      "name": "Object_7",
      "primitives": [
        {
          "attributes": {
            "NORMAL": 22,
            "POSITION": 21
          },
          "indices": 23,
          "material": 0,
          "mode": 4
        }
      ]
    },
    {
      "name": "Object_8",
      "primitives": [
        {
          "attributes": {
            "NORMAL": 25,
            "POSITION": 24
          },
          "indices": 26,
          "material": 0,
          "mode": 4
        }
      ]
    },
    {
      "name": "Object_9",
      "primitives": [
        {
          "attributes": {
            "NORMAL": 28,
            "POSITION": 27
          },
          "indices": 29,
          "material": 0,
          "mode": 4
        }
      ]
    },
    {
      "name": "Object_10",
      "primitives": [
        {
          "attributes": {
            "NORMAL": 31,
            "POSITION": 30
          },
          "indices": 32,
          "material": 0,
          "mode": 4
        }
      ]
    }
  ],
  "nodes": [
    {
      "children": [
        1
      ],
      "matrix": [
        1.0,
        0.0,
        0.0,
        0.0,
        0.0,
        2.220446049250313e-16,
        -1.0,
        0.0,
        0.0,
        1.0,
        2.220446049250313e-16,
        0.0,
        0.0,
        0.0,
        0.0,
        1.0
      ],
      "name": "Sketchfab_model"
    },
    {
      "children": [
        2,
        3,
        4,
        5,
        6,
        7,
        8,
        9,
        10,
        11,
        12
      ],
      "name": "Swing_ride_250k.OBJ.cleaner.materialmerger.gles"
    },
    {
      "mesh": 0,
      "name": "Object_2"
    },
    {
      "mesh": 1,
      "name": "Object_3"
    },
    {
      "mesh": 2,
      "name": "Object_4"
    },
    {
      "mesh": 3,
      "name": "Object_5"
    },
    {
      "mesh": 4,
      "name": "Object_6"
    },
    {
      "mesh": 5,
      "name": "Object_7"
    },
    {
      "mesh": 6,
      "name": "Object_8"
    },
    {
      "mesh": 7,
      "name": "Object_9"
    },
    {
      "mesh": 8,
      "name": "Object_10"
    },
    {
      "mesh": 9,
      "name": "Object_11"
    },
    {
      "mesh": 10,
      "name": "Object_12"
    }
  ],
  "scene": 0,
  "scenes": [
    {
      "name": "Sketchfab_Scene",
      "nodes": [
        0
      ]
    }
  ]
}
