{
  "accessors": [
    {
      "bufferView": 2,
      "componentType": 5126,
      "count": 1376,
      "max": [
        3.3601603507995605,
        4.150000095367432,
        3.3579187393188477
      ],
      "min": [
        -3.3511962890625,
        3.249999761581421,
        -3.3579187393188477
      ],
      "type": "VEC3"
    },
    {
      "bufferView": 2,
      "byteOffset": 16512,
      "componentType": 5126,
      "count": 1376,
      "max": [
        0.9911841154098511,
        0.8758859634399414,
        0.9901853203773499
      ],
      "min": [
        -0.9916563630104065,
        -0.8758862614631653,
        -0.9920752644538879
      ],
      "type": "VEC3"
    },
    {
      "bufferView": 1,
      "componentType": 5126,
      "count": 1376,
      "max": [
        0.9990290403366089,
        0.9918054342269897
      ],
      "min": [
        0.0,
        0.0
      ],
      "type": "VEC2"
    },
    {
      "bufferView": 1,
      "byteOffset": 11008,
      "componentType": 5126,
      "count": 1376,
      "max": [
        0.9990290403366089,
        0.9918054342269897
      ],
      "min": [
        0.0,
        0.0
      ],
      "type": "VEC2"
    },
    {
      "bufferView": 0,
      "componentType": 5125,
      "count": 8256,
      "type": "SCALAR"
    },
    {
      "bufferView": 2,
      "byteOffset": 33024,
      "componentType": 5126,
      "count": 288,
      "max": [
        3.2944674491882324,
        3.3399999141693115,
        0.4320000112056732
      ],
      "min": [
        -3.2944672107696533,
        -3.3399999141693115,
        -0.4320000112056732
      ],
      "type": "VEC3"
    },
    {
      "bufferView": 2,
      "byteOffset": 36480,
      "componentType": 5126,
      "count": 288,
      "max": [
        0.7294635772705078,
        0.7208491563796997,
        0.6838732361793518
      ],
      "min": [
        -0.7294635772705078,
        -0.7208491563796997,
        -0.6838732361793518
      ],
      "type": "VEC3"
    },
    {
      "bufferView": 1,
      "byteOffset": 22016,
      "componentType": 5126,
      "count": 288,
      "max": [
        0.9936121702194214,
        0.8751386404037476
      ],
      "min": [
        0.0,
        0.0
      ],
      "type": "VEC2"
    },
    {
      "bufferView": 1,
      "byteOffset": 24320,
      "componentType": 5126,
      "count": 288,
      "max": [
        0.9936121702194214,
        0.8751386404037476
      ],
      "min": [
        0.0,
        0.0
      ],
      "type": "VEC2"
    },
    {
      "bufferView": 0,
      "byteOffset": 33024,
      "componentType": 5125,
      "count": 1296,
      "type": "SCALAR"
    },
    {
      "bufferView": 2,
      "byteOffset": 39936,
      "componentType": 5126,
      "count": 152,
      "max": [
        3.3062100410461426,
        7.2688798904418945,
        0.41999998688697815
      ],
      "min": [
        -3.3087801933288574,
        0.541435956954956,
        -0.41999998688697815
      ],
      "type": "VEC3"
    },
    {
      "bufferView": 2,
      "byteOffset": 41760,
      "componentType": 5126,
      "count": 152,
      "max": [
        0.7058831453323364,
        0.7058852910995483,
        0.05882370471954346
      ],
      "min": [
        -0.7058831453323364,
        -0.7058852910995483,
        -0.05882370471954346
      ],
      "type": "VEC3"
    },
    {
      "bufferView": 1,
      "byteOffset": 26624,
      "componentType": 5126,
      "count": 152,
      "max": [
        0.9974649548530579,
        0.952566385269165
      ],
      "min": [
        0.0,
        0.0
      ],
      "type": "VEC2"
    },
    {
      "bufferView": 1,
      "byteOffset": 27840,
      "componentType": 5126,
      "count": 152,
      "max": [
        0.9974649548530579,
        0.952566385269165
      ],
      "min": [
        0.0,
        0.0
      ],
      "type": "VEC2"
    },
    {
      "bufferView": 0,
      "byteOffset": 38208,
      "componentType": 5125,
      "count": 684,
      "type": "SCALAR"
    },
    {
      "bufferView": 2,
      "byteOffset": 43584,
      "componentType": 5126,
      "count": 268,
      "max": [
        1.0299999713897705,
        3.730199098587036,
        0.7952628135681152
      ],
      "min": [
        -1.0299999713897705,
        -0.004531562328338623,
        -0.7952628135681152
      ],
      "type": "VEC3"
    },
    {
      "bufferView": 2,
      "byteOffset": 46800,
      "componentType": 5126,
      "count": 268,
      "max": [
        0.9995738863945007,
        1.0,
        0.8917509913444519
      ],
      "min": [
        -0.9994985461235046,
        -1.0,
        -0.8917509913444519
      ],
      "type": "VEC3"
    },
    {
      "bufferView": 1,
      "byteOffset": 29056,
      "componentType": 5126,
      "count": 268,
      "max": [
        0.9978684186935425,
        0.255959153175354
      ],
      "min": [
        0.0,
        0.0
      ],
      "type": "VEC2"
    },
    {
      "bufferView": 1,
      "byteOffset": 31200,
      "componentType": 5126,
      "count": 268,
      "max": [
        0.9978684186935425,
        0.255959153175354
      ],
      "min": [
        0.0,
        0.0
      ],
      "type": "VEC2"
    },
    {
      "bufferView": 0,
      "byteOffset": 40944,
      "componentType": 5125,
      "count": 1296,
      "type": "SCALAR"
    },
    {
      "bufferView": 2,
      "byteOffset": 50016,
      "componentType": 5126,
      "count": 5544,
      "max": [
        3.4761390686035156,
        7.172269344329834,
        0.2502576410770416
      ],
      "min": [
        -3.483741044998169,
        0.15821954607963562,
        -0.24974235892295837
      ],
      "type": "VEC3"
    },
    {
      "bufferView": 2,
      "byteOffset": 116544,
      "componentType": 5126,
      "count": 5544,
      "max": [
        0.9179290533065796,
        1.0,
        0.9809420704841614
      ],
      "min": [
        -0.9986708164215088,
        -1.0,
        -0.9304808974266052
      ],
      "type": "VEC3"
    },
    {
      "bufferView": 1,
      "byteOffset": 33344,
      "componentType": 5126,
      "count": 5544,
      "max": [
        0.9984645843505859,
        0.94964200258255
      ],
      "min": [
        0.0,
        0.0
      ],
      "type": "VEC2"
    },
    {
      "bufferView": 1,
      "byteOffset": 77696,
      "componentType": 5126,
      "count": 5544,
      "max": [
        0.9984645843505859,
        0.94964200258255
      ],
      "min": [
        0.0,
        0.0
      ],
      "type": "VEC2"
    },
    {
      "bufferView": 0,
      "byteOffset": 46128,
      "componentType": 5125,
      "count": 23112,
      "type": "SCALAR"
    },
    {
      "bufferView": 2,
      "byteOffset": 183072,
      "componentType": 5126,
      "count": 908,
      "max": [
        0.3017638623714447,
        4.211763858795166,
        0.5600000023841858
      ],
      "min": [
        -0.3017638027667999,
        3.608236312866211,
        -0.5600000023841858
      ],
      "type": "VEC3"
    },
    {
      "bufferView": 2,
      "byteOffset": 193968,
      "componentType": 5126,
      "count": 908,
      "max": [
        1.0,
        1.0,
        1.0
      ],
      "min": [
        -1.0,
        -1.0,
        -1.0
      ],
      "type": "VEC3"
    },
    {
      "bufferView": 1,
      "byteOffset": 122048,
      "componentType": 5126,
      "count": 908,
      "max": [
        0.9990208148956299,
        0.9609349966049194
      ],
      "min": [
        0.0,
        0.0
      ],
      "type": "VEC2"
    },
    {
      "bufferView": 1,
      "byteOffset": 129312,
      "componentType": 5126,
      "count": 908,
      "max": [
        0.9990208148956299,
        0.9609349966049194
      ],
      "min": [
        0.0,
        0.0
      ],
      "type": "VEC2"
    },
    {
      "bufferView": 0,
      "byteOffset": 138576,
      "componentType": 5125,
      "count": 4608,
      "type": "SCALAR"
    },
    {
      "bufferView": 2,
      "byteOffset": 204864,
      "componentType": 5126,
      "count": 1152,
      "max": [
        2.5020289421081543,
        6.425230026245117,
        0.47068870067596436
      ],
      "min": [
        -2.4983065128326416,
        1.3554942607879639,
        -0.39034974575042725
      ],
      "type": "VEC3"
    },
    {
      "bufferView": 2,
      "byteOffset": 218688,
      "componentType": 5126,
      "count": 1152,
      "max": [
        0.9872082471847534,
        0.9998295903205872,
        0.5405371785163879
      ],
      "min": [
        -0.9872082471847534,
        -0.9998295903205872,
        -0.5405380129814148
      ],
      "type": "VEC3"
    },
    {
      "bufferView": 1,
      "byteOffset": 136576,
      "componentType": 5126,
      "count": 1152,
      "max": [
        0.9930732250213623,
        0.969226062297821
      ],
      "min": [
        0.0,
        0.0
      ],
      "type": "VEC2"
    },
    {
      "bufferView": 1,
      "byteOffset": 145792,
      "componentType": 5126,
      "count": 1152,
      "max": [
        0.9930732250213623,
        0.969226062297821
      ],
      "min": [
        0.0,
        0.0
      ],
      "type": "VEC2"
    },
    {
      "bufferView": 0,
      "byteOffset": 157008,
      "componentType": 5125,
      "count": 5184,
      "type": "SCALAR"
    },
    {
      "bufferView": 2,
      "byteOffset": 232512,
      "componentType": 5126,
      "count": 18772,
      "max": [
        3.2025949954986572,
        7.158352851867676,
        0.4741502106189728
      ],
      "min": [
        -3.202594757080078,
        0.6543529033660889,
        0.41708680987358093
      ],
      "type": "VEC3"
    },
    {
      "bufferView": 2,
      "byteOffset": 457776,
      "componentType": 5126,
      "count": 18772,
      "max": [
        1.0,
        1.0,
        0.9510600566864014
      ],
      "min": [
        -1.0,
        -1.0,
        -0.9510592222213745
      ],
      "type": "VEC3"
    },
    {
      "bufferView": 1,
      "byteOffset": 155008,
      "componentType": 5126,
      "count": 18772,
      "max": [
        0.99969881772995,
        0.9895015358924866
      ],
      "min": [
        0.0,
        0.0
      ],
      "type": "VEC2"
    },
    {
      "bufferView": 1,
      "byteOffset": 305184,
      "componentType": 5126,
      "count": 18772,
      "max": [
        0.99969881772995,
        0.9895015358924866
      ],
      "min": [
        0.0,
        0.0
      ],
      "type": "VEC2"
    },
    {
      "bufferView": 0,
      "byteOffset": 177744,
      "componentType": 5125,
      "count": 108300,
      "type": "SCALAR"
    }
  ],
  "asset": {
    "extras": {
      "author": "kand8998 (https://sketchfab.com/KaitlynAndrus)",
      "license": "CC-BY-4.0 (http://creativecommons.org/licenses/by/4.0/)",
      "source": "https://sketchfab.com/3d-models/ferris-wheel-217ecd30faa54f20b03d8f0ad9ece9ee",
      "title": "Ferris Wheel"
    },
    "generator": "Sketchfab-12.68.0",
    "version": "2.0"
  },
  "bufferViews": [
    {
      "buffer": 0,
      "byteLength": 610944,
      "name": "floatBufferViews",
      "target": 34963
    },
    {
      "buffer": 0,
      "byteLength": 455360,
      "byteOffset": 610944,
      "byteStride": 8,
      "name": "floatBufferViews",
      "target": 34962
    },
    {
      "buffer": 0,
      "byteLength": 683040,
      "byteOffset": 1066304,
      "byteStride": 12,
      "name": "floatBufferViews",
      "target": 34962
    }
  ],
  "buffers": [
    {
      "byteLength": 1749344,
      "uri": "scene.bin"
    }
  ],
  "materials": [
    {
      "doubleSided": true,
      "name": "lambert1",
      "pbrMetallicRoughness": {
        "baseColorFactor": [
          0.6297637195121951,
          0.6297637195121951,
          0.6297637195121951,
          1.0
        ],
        "metallicFactor": 0.4712271341463415,
        "roughnessFactor": 0.6419588414634146
      }
    }
  ],
  "meshes": [
    {
      "name": "uvflatten1_0_lambert1_0",
      "primitives": [
        {
          "attributes": {
            "NORMAL": 1,
            "POSITION": 0,
            "TEXCOORD_0": 2,
            "TEXCOORD_1": 3
          },
          "indices": 4,
          "material": 0,
          "mode": 4
        }
      ]
    },
    {
      "name": "uvflatten1_0_lambert1_0",
      "primitives": [
        {
          "attributes": {
            "NORMAL": 6,
            "POSITION": 5,
            "TEXCOORD_0": 7,
            "TEXCOORD_1": 8
          },
          "indices": 9,
          "material": 0,
          "mode": 4
        }
      ]
    },
    {
      "name": "uvflatten1_0_lambert1_0",
      "primitives": [
        {
          "attributes": {
            "NORMAL": 11,
            "POSITION": 10,
            "TEXCOORD_0": 12,
            "TEXCOORD_1": 13
          },
          "indices": 14,
          "material": 0,
          "mode": 4
        }
      ]
    },
    {
      "name": "uvflatten1_0_lambert1_0",
      "primitives": [
        {
          "attributes": {
            "NORMAL": 16,
            "POSITION": 15,
            "TEXCOORD_0": 17,
            "TEXCOORD_1": 18
          },
          "indices": 19,
          "material": 0,
          "mode": 4
        }
      ]
    },
    {
      "name": "uvflatten1_0_lambert1_0",
      "primitives": [
        {
          "attributes": {
            "NORMAL": 21,
            "POSITION": 20,
            "TEXCOORD_0": 22,
            "TEXCOORD_1": 23
          },
          "indices": 24,
          "material": 0,
          "mode": 4
        }
      ]
    },
    {
      "name": "uvflatten1_0_lambert1_0",
      "primitives": [
        {
          "attributes": {
            "NORMAL": 26,
            "POSITION": 25,
            "TEXCOORD_0": 27,
            "TEXCOORD_1": 28
          },
          "indices": 29,
          "material": 0,
          "mode": 4
        }
      ]
    },
    {
      "name": "uvflatten1_0_lambert1_0",
      "primitives": [
        {
          "attributes": {
            "NORMAL": 31,
            "POSITION": 30,
            "TEXCOORD_0": 32,
            "TEXCOORD_1": 33
          },
          "indices": 34,
          "material": 0,
          "mode": 4
        }
      ]
    },
    {
      "name": "uvflatten1_0_lambert1_0",
      "primitives": [
        {
          "attributes": {
            "NORMAL": 36,
            "POSITION": 35,
            "TEXCOORD_0": 37,
            "TEXCOORD_1": 38
          },
          "indices": 39,
          "material": 0,
          "mode": 4
        }
      ]
    }
  ],
  "nodes": [
    {
      "children": [
        1
      ],
      "matrix": [
        1.0,
        0.0,
        0.0,
        0.0,
        0.0,
        2.220446049250313e-16,
        -1.0,
        0.0,
        0.0,
        1.0,
        2.220446049250313e-16,
        0.0,
        0.0,
        0.0,
        0.0,
        1.0
      ],
      "name": "Sketchfab_model"
    },
    {
      "children": [
        2
      ],
      "matrix": [
        1.0,
        0.0,
        0.0,
        0.0,
        0.0,
        0.0,
        1.0,
        0.0,
        0.0,
        -1.0,
        0.0,
        0.0,
        0.0,
        0.0,
        0.0,
        1.0
      ],
      "name": "d1d20f1e002944e3b5a2abe5ca7a2a99.fbx"
    },
    {
      "children": [
        3
      ],
      "name": "RootNode"
    },
    {
      "children": [
        4,
        7,
        10,
        13,
        16,
        19,
        22,
        25
      ],
      "name": "Ferris_Wheel_HDA1"
    },
    {
      "children": [
        5
      ],
      "matrix": [
        0.9998451215185232,
        -0.01745236227365118,
        0.0022689263272966413,
        0.0,
        -0.002268580599282145,
        3.9607364770155584e-05,
        0.9999974259833477,
        0.0,
        -0.017452407217172748,
        -0.9998476951427782,
        9.139975998273542e-09,
        0.0,
        0.0,
        3.9000000953674316,
        -3.700000047683716,
        1.0
      ],
      "name": "Ferris_Wheel"
    },
    {
      "children": [
        6
      ],
      "matrix": [
        1.0,
        -8.673617379884035e-19,
        -1.2125307142230397e-19,
        0.0,
        8.673617379884035e-19,
        1.0,
        1.1762508310504054e-20,
        0.0,
        1.2125307142230397e-19,
        -1.1762508310504054e-20,
        1.0,
        0.0,
        0.0,
        0.0,
        0.0,
        1.0
      ],
      "name": "uvflatten1_0"
    },
    {
      "mesh": 0,
      "name": "uvflatten1_0_lambert1_0"
    },
    {
      "children": [
        8
      ],
      "matrix": [
        1.0,
        0.0,
        0.0,
        0.0,
        0.0,
        1.0,
        0.0,
        0.0,
        0.0,
        0.0,
        1.0,
        0.0,
        0.0,
        3.9000000953674316,
        0.0,
        1.0
      ],
      "name": "Rungs_Ring"
    },
    {
      "children": [
        9
      ],
      "name": "uvflatten1_0"
    },
    {
      "mesh": 1,
      "name": "uvflatten1_0_lambert1_0"
    },
    {
      "children": [
        11
      ],
      "name": "Rungs_On_Sides"
    },
    {
      "children": [
        12
      ],
      "name": "uvflatten1_0"
    },
    {
      "mesh": 2,
      "name": "uvflatten1_0_lambert1_0"
    },
    {
      "children": [
        14
      ],
      "name": "Support"
    },
    {
      "children": [
        15
      ],
      "name": "uvflatten1_0"
    },
    {
      "mesh": 3,
      "name": "uvflatten1_0_lambert1_0"
    },
    {
      "children": [
        17
      ],
      "name": "Carriage"
    },
    {
      "children": [
        18
      ],
      "name": "uvflatten1_0"
    },
    {
      "mesh": 4,
      "name": "uvflatten1_0_lambert1_0"
    },
    {
      "children": [
        20
      ],
      "name": "Inner_Ring"
    },
    {
      "children": [
        21
      ],
      "name": "uvflatten1_0"
    },
    {
      "mesh": 5,
      "name": "uvflatten1_0_lambert1_0"
    },
    {
      "children": [
        23
      ],
      "name": "Sideways_Rungs"
    },
    {
      "children": [
        24
      ],
      "name": "uvflatten1_0"
    },
    {
      "mesh": 6,
      "name": "uvflatten1_0_lambert1_0"
    },
    {
      "children": [
        26
      ],
      "name": "bulbs"
    },
    {
      "children": [
        27
      ],
      "name": "uvflatten1_0"
    },
    {
      "mesh": 7,
      "name": "uvflatten1_0_lambert1_0"
    }
  ],
  "scene": 0,
  "scenes": [
    {
      "name": "Sketchfab_Scene",
      "nodes": [
        0
      ]
    }
  ]
}
